<?xml version="1.0" encoding="iso-8859-1"?>
<!-- Generator: Adobe Illustrator 19.0.0, SVG Export Plug-In . SVG Version: 6.00 Build 0)  -->
<svg xmlns="http://www.w3.org/2000/svg" xmlns:xlink="http://www.w3.org/1999/xlink" version="1.1" id="Capa_1" x="0px" y="0px" viewBox="0 0 512 512" style="enable-background:new 0 0 512 512;" xml:space="preserve" width="512" height="512">
<g>
	<path style="fill:#B6E3EE;" d="M308.668,183.285l-27.131,51.678l-53.338-101.361c-2.254-4.283-8.39-4.272-10.629,0.019   L24.069,504.495H487.93l-168.637-321.21C317.045,179.004,310.916,179.004,308.668,183.285z"/>
	<path style="fill:#96D2E0;" d="M487.93,504.495l-168.637-321.21c-2.248-4.281-8.377-4.281-10.625,0l-27.131,51.678L423.37,504.495   H487.93z"/>
	<path style="fill:#FFFFFF;" d="M288.186,248.663l-19.662,19.662c-2.343,2.343-6.142,2.343-8.485,0l-16.365-16.365   c-2.343-2.343-6.142-2.343-8.485,0l-32.929,32.93c-2.343,2.343-6.142,2.343-8.485,0l-36.228-36.227l60-114.999   c2.243-4.299,8.396-4.299,10.639,0L288.186,248.663z"/>
	<path style="fill:#E6E6E6;" d="M353.616,248.663l-19.662,19.662c-2.343,2.343-6.142,2.343-8.485,0l-16.365-16.365   c-2.343-2.343-6.142-2.343-8.485,0l-7.039,7.039l-12.415-23.795l27.493-51.973c2.257-4.267,8.372-4.257,10.616,0.016   L353.616,248.663z"/>
	<g>
		<path style="fill:#00CE96;" d="M185.984,421.512l-23.902-53.775c-2.112-4.751-8.854-4.751-10.966,0l-23.9,53.775    c-1.763,3.968,1.141,8.437,5.483,8.437h7.335l-13.275,33.185c-1.577,3.941,1.326,8.229,5.571,8.229h48.541    c4.245,0,7.147-4.288,5.571-8.229l-13.276-33.185h7.336C184.843,429.949,187.748,425.479,185.984,421.512z"/>
		<path style="fill:#00BA88;" d="M173.166,429.949h-33.131l-13.275,33.185c-1.577,3.941,1.326,8.229,5.571,8.229h48.541    c4.245,0,7.148-4.288,5.571-8.229L173.166,429.949z"/>
	</g>
	<g>
		<path style="fill:#00CE96;" d="M384.783,421.512l-23.902-53.775c-2.112-4.751-8.854-4.751-10.966,0l-23.9,53.775    c-1.763,3.968,1.141,8.437,5.483,8.437h7.335l-13.275,33.185c-1.577,3.941,1.326,8.229,5.571,8.229h48.541    c4.245,0,7.148-4.288,5.571-8.229l-13.276-33.185h7.336C383.642,429.949,386.547,425.479,384.783,421.512z"/>
		<path style="fill:#00BA88;" d="M371.965,429.949h-33.131l-13.275,33.185c-1.577,3.941,1.326,8.229,5.571,8.229h48.541    c4.245,0,7.148-4.288,5.571-8.229L371.965,429.949z"/>
	</g>
	<g>
		<path style="fill:#00BCE7;" d="M173.167,98.618c0-18.299-14.835-33.134-33.134-33.134c-5.413,0-10.522,1.3-15.034,3.602    c-2.199,1.122-4.865,0.68-6.684-0.99c-7.37-6.764-17.192-10.896-27.984-10.896c-22.874,0-41.418,18.543-41.418,41.418H173.167z"/>
	</g>
	<g>
		<path style="fill:#00BCE7;" d="M463.105,131.752c0-18.299-14.835-33.134-33.134-33.134c-5.413,0-10.522,1.3-15.034,3.602    c-2.199,1.122-4.865,0.68-6.684-0.99c-7.37-6.764-17.192-10.896-27.984-10.896c-22.874,0-41.418,18.543-41.418,41.418H463.105z"/>
	</g>
	<g>
		<circle style="fill:#FFD151;" cx="297.416" cy="48.917" r="41.417"/>
		<path style="fill:#F79B4A;" d="M297.416,7.5c-3.449,0-6.797,0.429-10,1.223c18.042,4.474,31.418,20.769,31.418,40.195    c0,19.425-13.376,35.72-31.418,40.194c3.203,0.794,6.551,1.223,10,1.223c22.874,0,41.418-18.543,41.418-41.417    C338.834,26.043,320.29,7.5,297.416,7.5z"/>
	</g>
</g>
<g>
	<path d="M504.498,497h-12.031L360.272,245.206c-0.01-0.02-0.021-0.04-0.031-0.059l-39.621-75.467   c-1.296-2.468-3.853-4.014-6.641-4.014c-2.787,0-5.345,1.546-6.641,4.014l-26.031,49.585l-51.792-99.267   c-1.293-2.478-3.855-4.031-6.649-4.031c-2.794,0-5.356,1.553-6.649,4.031l-65.293,125.144c-0.013,0.024-0.025,0.047-0.037,0.071   L19.52,497H7.502c-4.142,0-7.5,3.358-7.5,7.5c0,4.142,3.358,7.5,7.5,7.5H74.46c4.143,0,7.5-3.358,7.5-7.5   c0-4.142-3.357-7.5-7.5-7.5H36.439L159.47,261.192l33.244,33.244c1.407,1.407,3.314,2.197,5.304,2.197   c1.989,0,3.896-0.79,5.304-2.197l36.11-36.112l19.548,19.546c2.928,2.929,7.677,2.929,10.606,0l16.678-16.678l0.66,1.266   c0.009,0.018,0.019,0.036,0.028,0.054l41.631,79.792c1.916,3.672,6.448,5.095,10.118,3.18c3.673-1.916,5.097-6.446,3.181-10.119   l-39.107-74.955l2.086-2.086l19.548,19.546c1.464,1.465,3.384,2.197,5.303,2.197c1.919,0,3.839-0.732,5.304-2.197l16.698-16.698   L475.524,497H362.899v-18.138h25.634c2.488,0,4.815-1.234,6.211-3.295c1.395-2.061,1.677-4.68,0.753-6.99l-12.454-31.128h5.49   c2.539,0,4.905-1.284,6.289-3.413c1.383-2.129,1.596-4.813,0.564-7.133l-33.135-74.548c-1.204-2.708-3.89-4.454-6.854-4.454   c-2.964,0-5.649,1.746-6.853,4.454l-33.132,74.548c-1.031,2.32-0.818,5.004,0.564,7.133c1.384,2.129,3.75,3.413,6.289,3.413h5.489   l-12.453,31.128c-0.924,2.31-0.642,4.929,0.753,6.99c1.396,2.061,3.723,3.295,6.211,3.295h25.633V497H164.1v-18.138h25.634   c2.488,0,4.815-1.234,6.211-3.295c1.395-2.061,1.677-4.68,0.753-6.99l-12.454-31.128h5.49c2.539,0,4.905-1.284,6.289-3.413   c1.383-2.129,1.596-4.813,0.564-7.133l-33.135-74.548c-1.204-2.708-3.89-4.454-6.854-4.454s-5.649,1.746-6.854,4.454   l-33.132,74.548c-1.031,2.32-0.818,5.004,0.564,7.133c1.384,2.129,3.75,3.413,6.289,3.413h5.489l-12.453,31.128   c-0.924,2.31-0.642,4.929,0.753,6.99c1.396,2.061,3.723,3.295,6.211,3.295H149.1V497h-44.673c-4.143,0-7.5,3.358-7.5,7.5   c0,4.142,3.357,7.5,7.5,7.5h400.07c4.143,0,7.5-3.358,7.5-7.5C511.998,500.358,508.64,497,504.498,497z M264.282,261.96   l-19.548-19.546c-2.928-2.93-7.677-2.929-10.606,0l-36.11,36.112l-31.274-31.274l56.124-107.57l56.124,107.57L264.282,261.96z    M329.711,261.96l-19.548-19.546c-1.406-1.407-3.313-2.197-5.303-2.197c-1.989,0-3.896,0.79-5.304,2.197l-4.055,4.056l-0.655-1.256   c-0.012-0.024-0.024-0.048-0.037-0.071l-5.057-9.692l24.228-46.15l30.43,57.961L329.711,261.96z M134.545,463.862l12.453-31.128   c0.924-2.311,0.642-4.929-0.753-6.99c-1.396-2.061-3.723-3.295-6.211-3.295h-5.026l21.591-48.582l21.594,48.582h-5.027   c-2.488,0-4.815,1.234-6.211,3.295c-1.395,2.061-1.677,4.68-0.753,6.99l12.454,31.128H134.545z M333.344,463.862l12.453-31.128   c0.924-2.311,0.642-4.929-0.753-6.99c-1.396-2.061-3.723-3.295-6.211-3.295h-5.026l21.591-48.582l21.594,48.582h-5.027   c-2.488,0-4.815,1.234-6.211,3.295c-1.395,2.061-1.677,4.68-0.753,6.99l12.454,31.128H333.344z"/>
	<path d="M297.416,97.835c26.974,0,48.918-21.944,48.918-48.917C346.334,21.944,324.389,0,297.416,0   c-26.973,0-48.917,21.944-48.917,48.918C248.499,75.891,270.443,97.835,297.416,97.835z M297.416,15   c18.702,0,33.918,15.215,33.918,33.918c0,18.702-15.216,33.917-33.918,33.917c-18.702,0-33.917-15.215-33.917-33.917   C263.499,30.215,278.713,15,297.416,15z"/>
	<path d="M24.069,106.118h49.698c4.143,0,7.5-3.358,7.5-7.5c0-4.142-3.357-7.5-7.5-7.5H57.261   C60.685,76.014,74.208,64.7,90.333,64.7c9.717,0,18.986,4.188,25.432,11.491c2.501,2.834,6.723,3.365,9.85,1.233   c4.259-2.905,9.245-4.44,14.42-4.44c11.526,0,21.297,7.648,24.512,18.134h-7.947c-4.143,0-7.5,3.358-7.5,7.5   c0,4.142,3.357,7.5,7.5,7.5h49.699c4.143,0,7.5-3.358,7.5-7.5c0-4.142-3.357-7.5-7.5-7.5h-26.336   c-3.53-18.834-20.086-33.134-39.928-33.134c-6.079,0-11.996,1.338-17.404,3.908C113.749,54.083,102.277,49.7,90.333,49.7   c-24.424,0-44.723,17.992-48.342,41.417H24.069c-4.142,0-7.5,3.358-7.5,7.5C16.569,102.76,19.926,106.118,24.069,106.118z"/>
	<path d="M331.905,124.252h-17.921c-4.143,0-7.5,3.358-7.5,7.5c0,4.142,3.357,7.5,7.5,7.5h49.697c4.143,0,7.5-3.358,7.5-7.5   c0-4.142-3.357-7.5-7.5-7.5h-16.505c3.424-15.104,16.947-26.417,33.072-26.417c9.717,0,18.986,4.188,25.432,11.491   c2.503,2.835,6.724,3.365,9.85,1.233c4.258-2.905,9.245-4.44,14.42-4.44c11.526,0,21.297,7.647,24.512,18.134h-7.947   c-4.143,0-7.5,3.358-7.5,7.5c0,4.142,3.357,7.5,7.5,7.5h49.699c4.143,0,7.5-3.358,7.5-7.5c0-4.142-3.357-7.5-7.5-7.5h-26.336   c-3.53-18.834-20.086-33.134-39.928-33.134c-6.079,0-11.997,1.338-17.404,3.908c-8.881-7.809-20.354-12.192-32.297-12.192   C355.824,82.835,335.525,100.827,331.905,124.252z"/>
</g>















</svg>
