<?xml version="1.0"?>
<svg xmlns="http://www.w3.org/2000/svg" viewBox="0 0 64 64" width="512" height="512"><g id="Filled_outline" data-name="Filled outline"><rect x="15" y="11.757" width="2" height="8.485" transform="translate(-6.627 16) rotate(-45)" style="fill:#98b398"/><rect x="43.757" y="50" width="8.485" height="2" transform="translate(-22.004 48.879) rotate(-45)" style="fill:#98b398"/><rect x="44.095" y="24.5" width="7.81" height="2" transform="translate(-5.194 36.662) rotate(-39.831)" style="fill:#98b398"/><path d="M46,21H34a55.273,55.273,0,0,0,1-9,55.273,55.273,0,0,0-1-9H46a55.273,55.273,0,0,0-1,9A55.273,55.273,0,0,0,46,21Z" style="fill:#3e8051"/><path d="M46,61H34a55.273,55.273,0,0,0,1-9,55.273,55.273,0,0,0-1-9H46a55.273,55.273,0,0,0-1,9A55.273,55.273,0,0,0,46,61Z" style="fill:#3e8051"/><path d="M30,43H18a55.273,55.273,0,0,0,1-9,55.273,55.273,0,0,0-1-9H30a55.273,55.273,0,0,0-1,9A55.273,55.273,0,0,0,30,43Z" style="fill:#3e8051"/><path d="M30,61H18a55.273,55.273,0,0,0,1-9,55.273,55.273,0,0,0-1-9H30a55.273,55.273,0,0,0-1,9A55.273,55.273,0,0,0,30,61Z" style="fill:#67ac7f"/><path d="M46,43H34a62.681,62.681,0,0,0,1-11,62.681,62.681,0,0,0-1-11H46a61,61,0,0,0,0,22Z" style="fill:#67ac7f"/><path d="M30,25H18a62.681,62.681,0,0,0,1-11A62.681,62.681,0,0,0,18,3H30a62.681,62.681,0,0,0-1,11A62.681,62.681,0,0,0,30,25Z" style="fill:#67ac7f"/><path d="M3,2H2V3A11.013,11.013,0,0,0,13,14h1V13A11.013,11.013,0,0,0,3,2Z" style="fill:#3e8051"/><path d="M18.949,42A11.01,11.01,0,0,0,8,32H7v1a11.007,11.007,0,0,0,6.444,10A11.007,11.007,0,0,0,7,53v1H8A11.01,11.01,0,0,0,18.949,44H19V42Z" style="fill:#3e8051"/><path d="M54.548,22.6a12.148,12.148,0,0,0,3.778-3.508,10.267,10.267,0,0,0,1.646-8.327l-.237-.971-.971.236a12.234,12.234,0,0,0-7.09,4.882,10.27,10.27,0,0,0-1.668,8.207A11.009,11.009,0,0,0,61,34h1V33A11.012,11.012,0,0,0,54.548,22.6Z" style="fill:#3e8051"/><path d="M61,37A11.013,11.013,0,0,0,50,48v1h1A11.013,11.013,0,0,0,62,38V37Z" style="fill:#3e8051"/><path d="M40.03,57.243a19.451,19.451,0,0,1,0-8.486l1.94.486a17.61,17.61,0,0,0,0,7.514Z" style="fill:#d1f5c9"/><path d="M23.97,39.243l-1.941-.484A21.818,21.818,0,0,0,22.02,30.2l1.96-.392A23.41,23.41,0,0,1,23.97,39.243Z" style="fill:#d1f5c9"/><path d="M40.03,12.243c-1.066-4.265.955-9.4,1.041-9.615l1.858.743c-.019.047-1.867,4.755-.959,8.386Z" style="fill:#d1f5c9"/><rect x="22" y="6" width="2" height="2" style="fill:#d1f5c9"/><rect x="40" y="24" width="2" height="2" style="fill:#d1f5c9"/><path d="M12.564,13.978l5.2,5.2c-.288,3.3-.739,5.592-.745,5.625a1.835,1.835,0,0,0,0,.392A54.676,54.676,0,0,1,18,34a37.072,37.072,0,0,1-.247,3.932A11.005,11.005,0,0,0,8,32H7v1a11.007,11.007,0,0,0,6.444,10A11.007,11.007,0,0,0,7,53v1H8a11.005,11.005,0,0,0,9.753-5.932A37.039,37.039,0,0,1,18,52a54.745,54.745,0,0,1-.98,8.8A1,1,0,0,0,18,62H30a1,1,0,0,0,.98-1.2A54.676,54.676,0,0,1,30,52a54.745,54.745,0,0,1,.98-8.8,1.835,1.835,0,0,0,0-.392A54.676,54.676,0,0,1,30,34a54.745,54.745,0,0,1,.98-8.8,1.835,1.835,0,0,0,0-.392A62.407,62.407,0,0,1,30,14a62.407,62.407,0,0,1,.98-10.8A1,1,0,0,0,30,2H18a1,1,0,0,0-.98,1.2A62.407,62.407,0,0,1,18,14c0,.867-.023,1.711-.06,2.526l-3.962-3.962A11,11,0,0,0,3,2H2V3A11,11,0,0,0,12.564,13.978ZM28.8,42H19.2a51.678,51.678,0,0,0,.8-8,51.678,51.678,0,0,0-.8-8h9.6a51.678,51.678,0,0,0-.8,8A51.678,51.678,0,0,0,28.8,42ZM9.062,34.062a9.016,9.016,0,0,1,7.875,7.876A9.018,9.018,0,0,1,9.062,34.062Zm0,17.876a9.018,9.018,0,0,1,7.875-7.876A9.016,9.016,0,0,1,9.062,51.938ZM28.8,60H19.2a51.678,51.678,0,0,0,.8-8,51.678,51.678,0,0,0-.8-8h9.6a51.678,51.678,0,0,0-.8,8A51.678,51.678,0,0,0,28.8,60Zm.008-56A64.945,64.945,0,0,0,28,14a64.945,64.945,0,0,0,.809,10H19.191A64.945,64.945,0,0,0,20,14a64.945,64.945,0,0,0-.809-10ZM11.937,11.938A9.018,9.018,0,0,1,4.062,4.062,9.016,9.016,0,0,1,11.937,11.938Z"/><path d="M50.188,24.979A11.011,11.011,0,0,0,61,34h1V33a11.012,11.012,0,0,0-7.452-10.4,12.148,12.148,0,0,0,3.778-3.508,10.267,10.267,0,0,0,1.646-8.327l-.237-.971-.971.236a12.234,12.234,0,0,0-7.09,4.882,10.306,10.306,0,0,0-1.763,7.7l-3.554,2.961c.278-2.607.618-4.342.623-4.371a1.835,1.835,0,0,0,0-.392A54.676,54.676,0,0,1,46,12a54.745,54.745,0,0,1,.98-8.8A1,1,0,0,0,46,2H34a1,1,0,0,0-.98,1.2A54.676,54.676,0,0,1,34,12a54.745,54.745,0,0,1-.98,8.8,1.835,1.835,0,0,0,0,.392A62.407,62.407,0,0,1,34,32a62.407,62.407,0,0,1-.98,10.8,1.835,1.835,0,0,0,0,.392A54.676,54.676,0,0,1,34,52a54.745,54.745,0,0,1-.98,8.8A1,1,0,0,0,34,62H46a1,1,0,0,0,.98-1.2,62.224,62.224,0,0,1-.884-6.486l5.34-5.34A11,11,0,0,0,62,38V37H61A11,11,0,0,0,50.022,47.564L46.006,51.58A56.511,56.511,0,0,1,46.98,43.2a1.835,1.835,0,0,0,0-.392A62.407,62.407,0,0,1,46,32c0-1.268.048-2.489.12-3.631Zm9.749,6.959a9.018,9.018,0,0,1-7.875-7.876A9.016,9.016,0,0,1,59.937,31.938ZM53.321,16.045a10.227,10.227,0,0,1,4.889-3.762,8.426,8.426,0,0,1-1.531,5.672,10.227,10.227,0,0,1-4.889,3.762A8.426,8.426,0,0,1,53.321,16.045ZM35.191,22h9.618A64.945,64.945,0,0,0,44,32a64.945,64.945,0,0,0,.809,10H35.191A64.945,64.945,0,0,0,36,32,64.945,64.945,0,0,0,35.191,22ZM35.2,4h5.407a16.633,16.633,0,0,0-.576,8.243l1.94-.486c-.712-2.85.271-6.355.736-7.757H44.8a51.678,51.678,0,0,0-.8,8,51.678,51.678,0,0,0,.8,8H35.2a51.678,51.678,0,0,0,.8-8A51.678,51.678,0,0,0,35.2,4Zm0,56a51.678,51.678,0,0,0,.8-8,51.678,51.678,0,0,0-.8-8h9.6a51.678,51.678,0,0,0-.8,8,51.678,51.678,0,0,0,.8,8ZM59.937,39.062a9.016,9.016,0,0,1-7.875,7.876A9.018,9.018,0,0,1,59.937,39.062Z"/><path d="M40.03,48.757a19.451,19.451,0,0,0,0,8.486l1.94-.486a17.61,17.61,0,0,1,0-7.514Z"/><path d="M22.02,30.2a21.818,21.818,0,0,1,.009,8.563l1.941.484a23.41,23.41,0,0,0,.01-9.439Z"/><rect x="22" y="6" width="2" height="2"/><rect x="40" y="24" width="2" height="2"/></g></svg>
