<svg height="512pt" viewBox="0 -42 512 511" width="512pt" xmlns="http://www.w3.org/2000/svg"><path d="m124.609375 200.007812h243.867187v48.386719h-243.867187zm0 0" fill="#e7ad8f"/><path d="m479.796875 183.203125h-64v-84.019531c0-5.523438 4.476563-10 10-10h44c5.519531 0 10 4.476562 10 10zm0 0" fill="#00f2a9"/><path d="m479.800781 99.183594v84.019531h-20.070312v-84.019531c0-5.519532-4.46875-10-10-10h20.070312c5.519531 0 10 4.480468 10 10zm0 0" fill="#09d692"/><path d="m427.734375 183.203125h-41.03125v-49.019531c0-5.523438 4.476563-10 10-10h21.03125c5.523437 0 10 4.476562 10 10zm0 0" fill="#ff5a96"/><path d="m427.730469 134.183594v49.019531h-18.21875v-49.019531c0-5.519532-4.480469-10-10-10h18.21875c5.53125 0 10 4.480468 10 10zm0 0" fill="#ff3b82"/><path d="m124.605469 183.203125h-92.757813v-25.082031c0-5.523438 4.476563-10 10-10h72.757813c5.523437 0 10 4.476562 10 10zm0 0" fill="#ffc26d"/><path d="m124.609375 158.125v25.078125h-17.5v-25.078125c0-5.53125-4.480469-10-10-10h17.5c5.519531 0 10 4.46875 10 10zm0 0" fill="#ffb54e"/><path d="m238.644531 143.226562-5.804687 37.554688h46.320312l-5.804687-37.554688zm0 0" fill="#b6dcff"/><path d="m356.085938 18.628906v115.238282c0 5.871093-4.757813 10.628906-10.625 10.628906h-178.921876c-5.867187 0-10.625-4.757813-10.625-10.628906v-115.238282c0-5.871094 4.757813-10.628906 10.625-10.628906h178.921876c5.867187 0 10.625 4.757812 10.625 10.628906zm0 0" fill="#daedff"/><path d="m356.089844 18.625v115.238281c0 5.871094-4.761719 10.632813-10.628906 10.632813h-19.332032c5.871094 0 10.621094-4.761719 10.621094-10.632813v-115.238281c0-5.871094-4.75-10.628906-10.621094-10.628906h19.332032c5.867187 0 10.628906 4.757812 10.628906 10.628906zm0 0" fill="#b6dcff"/><path d="m356.089844 18.625v100.128906h-200.179688v-100.128906c0-5.871094 4.761719-10.621094 10.628906-10.621094h178.921876c2.9375 0 5.589843 1.191406 7.519531 3.109375 1.917969 1.933594 3.109375 4.582031 3.109375 7.511719zm0 0" fill="#609cd6"/><path d="m356.089844 18.625v100.128906h-19.339844v-100.128906c0-5.691406-4.460938-10.328125-10.070312-10.621094-.179688-.007812-.371094-.007812-.550782-.007812h19.332032c2.9375 0 5.597656 1.1875 7.519531 3.117187 1.917969 1.933594 3.109375 4.582031 3.109375 7.511719zm0 0" fill="#408ace"/><path d="m368.476562 213.683594h118.511719v59.367187h-118.511719zm0 0" fill="#e19a77"/><path d="m468.332031 213.683594h18.65625v59.367187h-18.65625zm0 0" fill="#db885d"/><path d="m368.476562 304.21875h118.511719v59.363281h-118.511719zm0 0" fill="#e19a77"/><path d="m468.332031 304.21875h18.65625v59.363281h-18.65625zm0 0" fill="#db885d"/><path d="m143.519531 213.683594v197c0 5.523437-4.476562 10-10 10h-98.507812c-5.523438 0-10-4.476563-10-10v-197zm0 0" fill="#db885d"/><path d="m143.519531 213.683594v197c0 5.523437-4.476562 10-10 10h-9.257812v-207zm0 0" fill="#c86d3d"/><path d="m25.011719 213.683594h118.507812v59.371094h-118.507812zm0 0" fill="#e19a77"/><path d="m124.265625 213.683594h19.257813v59.367187h-19.257813zm0 0" fill="#db885d"/><path d="m494.5 214.816406h-477c-5.523438 0-10-4.476562-10-10v-16.261718c0-5.523438 4.476562-10 10-10h477c5.523438 0 10 4.476562 10 10v16.261718c0 5.523438-4.476562 10-10 10zm0 0" fill="#fedfc5"/><path d="m427.695312 250.867188h.039063c4.125 0 7.476563-3.332032 7.5-7.460938.019531-4.140625-3.320313-7.515625-7.460937-7.539062h-.09375c-4.132813-.015626-7.46875 3.320312-7.492188 7.460937s3.363281 7.519531 7.507812 7.539063zm0 0"/><path d="m427.773438 326.402344h-.09375c-4.132813.011718-7.46875 3.316406-7.492188 7.460937-.023438 4.140625 3.363281 7.515625 7.507812 7.539063h.039063c4.125 0 7.476563-3.332032 7.5-7.460938.019531-4.144531-3.320313-7.519531-7.460937-7.539062zm0 0"/><path d="m55.261719 339.171875c-4.144531 0-7.453125 3.359375-7.453125 7.5 0 4.144531 3.402344 7.5 7.542968 7.5 4.144532 0 7.5-3.355469 7.5-7.5 0-4.140625-3.355468-7.5-7.5-7.5zm0 0"/><path d="m84.304688 235.867188h-.089844c-.015625 0-.027344 0-.042969 0-4.121094 0-7.429687 3.332031-7.453125 7.460937-.019531 4.144531 3.367188 7.519531 7.507812 7.539063h.039063c4.125 0 7.476563-3.332032 7.5-7.457032.023437-4.144531-3.316406-7.519531-7.460937-7.542968zm0 0"/><path d="m494.5 171.054688h-7.203125v-71.871094c0-9.648438-7.851563-17.5-17.5-17.5h-44c-9.652344 0-17.5 7.851562-17.5 17.5v17.5h-11.59375c-9.648437 0-17.5 7.851562-17.5 17.5v36.871094h-93.957031l-2.945313-19.058594h63.160157c9.992187 0 18.125-8.132813 18.125-18.128906v-115.238282c0-9.996094-8.132813-18.128906-18.125-18.128906h-122.199219c-4.144531 0-7.5 3.359375-7.5 7.5s3.355469 7.5 7.5 7.5h122.199219c1.722656 0 3.125 1.402344 3.125 3.128906v92.625h-185.171876v-92.625c0-1.726562 1.402344-3.128906 3.125-3.128906h22.199219c4.144531 0 7.5-3.359375 7.5-7.5s-3.355469-7.5-7.5-7.5h-22.199219c-9.992187 0-18.125 8.132812-18.125 18.128906v115.242188c0 9.996094 8.132813 18.125 18.125 18.125h63.160157l-2.945313 19.058594h-94.648437v-12.933594c0-9.648438-7.847657-17.5-17.5-17.5h-72.757813c-9.648437 0-17.5 7.851562-17.5 17.5v12.933594h-6.847656c-9.648438 0-17.5 7.851562-17.5 17.5v16.261718c0 9.648438 7.851562 17.5 17.5 17.5h.011719v188.367188c0 9.652344 7.847656 17.5 17.5 17.5h98.511719c9.648437 0 17.5-7.847656 17.5-17.5v-37.082032c0-4.140624-3.359376-7.5-7.5-7.5-4.140626 0-7.5 3.359376-7.5 7.5v37.082032c0 1.378906-1.121094 2.5-2.5 2.5h-98.511719c-1.378907 0-2.5-1.121094-2.5-2.5v-130.132813h103.511719v58.527344c0 4.140625 3.359374 7.5 7.5 7.5 4.140624 0 7.5-3.359375 7.5-7.5v-83.183594h209.953124v164.789063c0 4.144531 3.359376 7.5 7.5 7.5 4.144532 0 7.5-3.355469 7.5-7.5v-19.882813h103.511719v19.882813c0 4.144531 3.359375 7.5 7.5 7.5 4.144531 0 7.5-3.355469 7.5-7.5v-198.367188h.011719c9.648438 0 17.5-7.851562 17.5-17.5v-16.261718c0-9.652344-7.851562-17.5-17.5-17.5zm-68.703125-74.371094h44c1.375 0 2.5 1.121094 2.5 2.5v71.871094h-37.0625v-36.871094c0-7.703125-5.011719-14.246094-11.9375-16.578125v-18.421875c0-1.378906 1.121094-2.5 2.5-2.5zm-31.59375 37.5c0-1.378906 1.121094-2.5 2.5-2.5h21.03125c1.378906 0 2.5 1.121094 2.5 2.5v36.871094h-26.03125zm-230.789063-.316406v-7.613282h185.171876v7.613282c0 1.726562-1.402344 3.128906-3.125 3.128906h-178.921876c-1.722656 0-3.125-1.402344-3.125-3.128906zm81.464844 18.128906h22.242188l2.945312 19.058594h-28.132812zm-205.53125 6.125c0-1.378906 1.121094-2.5 2.5-2.5h72.761719c1.375 0 2.5 1.121094 2.5 2.5v12.933594h-77.761719zm-6.835937 107.429687v-42.367187h103.511719v42.367187zm343.464843 46.167969h103.511719v44.363281h-103.511719zm103.511719-15h-103.511719v-16.167969h103.511719zm-103.511719 89.082031v-14.71875h103.511719v14.71875zm103.511719-120.25h-103.511719v-43.234375h103.511719zm17.511719-60.734375c0 1.378906-1.121094 2.5-2.5 2.5h-157.238281c-4.144531 0-7.5 3.359375-7.5 7.5s3.355469 7.5 7.5 7.5h23.714843v18.578125h-209.953124v-18.578125h151.714843c4.140625 0 7.5-3.359375 7.5-7.5s-3.359375-7.5-7.5-7.5h-285.238281c-1.378906 0-2.5-1.121094-2.5-2.5v-16.261718c0-1.378907 1.121094-2.5 2.5-2.5h477c1.378906 0 2.5 1.121093 2.5 2.5zm0 0"/><path d="m78.195312 122.910156h.019532c4.132812 0 7.488281-3.34375 7.5-7.476562l.027344-9.488282c.011718-4.144531-3.335938-7.511718-7.476563-7.523437-.007813 0-.015625 0-.023437 0-4.132813 0-7.488282 3.34375-7.5 7.480469l-.027344 9.488281c-.011719 4.140625 3.335937 7.507813 7.480468 7.519531zm0 0"/><path d="m49 123.183594c1.386719 2.417968 3.914062 3.773437 6.511719 3.773437 1.265625 0 2.550781-.320312 3.726562-.996093 3.589844-2.0625 4.835938-6.644532 2.773438-10.238282l-4.722657-8.230468c-2.058593-3.59375-6.644531-4.835938-10.234374-2.773438-3.59375 2.058594-4.835938 6.640625-2.777344 10.234375zm0 0"/><path d="m97.132812 126.070312c1.1875.691407 2.480469 1.019532 3.761719 1.019532 2.585938 0 5.097657-1.339844 6.492188-3.734375l4.769531-8.203125c2.082031-3.582032.863281-8.171875-2.714844-10.253906-3.582031-2.078126-8.171875-.867188-10.253906 2.714843l-4.769531 8.203125c-2.082031 3.582032-.867188 8.171875 2.714843 10.253906zm0 0"/></svg>